<svg xmlns="http://www.w3.org/2000/svg" viewBox="0 0 46.66 53.11"><defs><style>.cls-1,.cls-2{fill:none;stroke-miterlimit:10;stroke-width:0.75px;}.cls-1{stroke:#fff;}.cls-2{stroke:#ffd424;}</style></defs><title>Ikoner</title><g id="Layer_6" data-name="Layer 6"><path class="cls-1" d="M13.39,11.12a2.25,2.25,0,0,1,2.25-2.25H39.35a2.25,2.25,0,0,1,2.25,2.25v28.7a2,2,0,0,1-2,2.23"/><path class="cls-1" d="M37.44,46H12.29a2.38,2.38,0,0,1-2.38-2.39V13.2a2.37,2.37,0,0,1,2.38-2.38h16.2L39.82,21.37V43.64A2.39,2.39,0,0,1,37.44,46Z"/><path class="cls-1" d="M39.82,21.37H30.88A2.38,2.38,0,0,1,28.49,19V10.82"/><line class="cls-2" x1="26.86" y1="20.32" x2="14.84" y2="20.32"/><line class="cls-2" x1="22.71" y1="22.68" x2="14.84" y2="22.68"/><line class="cls-2" x1="22.71" y1="25.04" x2="14.84" y2="25.04"/><line class="cls-2" x1="22.71" y1="40.96" x2="14.84" y2="40.96"/><rect class="cls-2" x="16.6" y="35.62" width="2.42" height="2.8"/><rect class="cls-2" x="20.4" y="32.27" width="2.42" height="6.14"/><rect class="cls-2" x="24.21" y="33.44" width="2.42" height="4.98"/><rect class="cls-2" x="28.01" y="30.34" width="2.42" height="8.08"/><polyline class="cls-2" points="15.25 27.55 15.25 38.38 31.23 38.38"/></g></svg>