<svg xmlns="http://www.w3.org/2000/svg" viewBox="0 0 512 512">
  <circle cx="256" cy="256" r="256" fill="#eceff1"/>
  <path d="M442.3 405.7a95 95 0 00-39.5-18.2l-70.1-14c-7.4-1.5-12.7-8-12.7-15.8v-16c4.5-6.4 8.8-14.8 13.2-23.6 3.5-6.8 8.7-17.1 11.3-19.8 14.2-14.2 28-30.3 32.2-51 4-19.3 0-29.5-4.5-37.7 0-20.4-.7-46-5.5-64.7-.6-25.2-5.2-39.4-16.7-51.8-8.1-8.8-20-10.8-29.7-12.5a52 52 0 01-11-2.5 113 113 0 00-54-14.1c-42.1 1.7-94 28.5-111.3 76.4-5.3 14.5-4.8 38.4-4.4 57.6l-.4 11.6c-4.1 8-8.2 18.3-4.2 37.7 4.3 20.7 18 36.8 32.5 51.3 2.3 2.4 7.7 12.8 11.2 19.6 4.5 8.8 8.8 17.2 13.3 23.5v16c0 7.7-5.3 14.3-12.7 15.7L109 387.5a95.2 95.2 0 00-39.3 18.2 16.1 16.1 0 00-1.9 23.3c47.8 52.7 116.4 83 188.2 83s140.4-30.2 188.2-83a16 16 0 00-2-23.3z" fill="#455a64"/>
</svg>